<svg height="512" viewBox="0 0 64 64" width="512" xmlns="http://www.w3.org/2000/svg"><g id="flat"><path d="m39.968 17h-15.968l-11.828 22.556a15.959 15.959 0 0 0 5.828 9.444c9.562 7.968 10.813 6.248 14 11.029 3.187-4.781 4.438-3.061 14-11.029a15.959 15.959 0 0 0 5.828-9.444z" fill="#f4f4e6"/><path d="m24 17s-14.219-15.781-19-11 .032 15.438 8 25z" fill="#d3843d"/><path d="m12.172 39.556c1.059-1.606 2.696-2.556 8.828-2.556 9.562 0 11-8 11-8v-12h-8l-11 14a15.645 15.645 0 0 0 -.828 8.556z" fill="#f9bb4b"/><path d="m20.5 21.449c-2.953-3.513-8.923-10.309-10.815-9-3.222 2.228 2.907 9.486 6.476 14.522z" fill="#f4f4e6"/><circle cx="26" cy="31" fill="#143441" r="2"/><path d="m40 17s14.219-15.781 19-11-.032 15.438-8 25z" fill="#d3843d"/><path d="m51.828 39.556c-1.059-1.606-2.696-2.556-8.828-2.556-9.562 0-11-8-11-8v-12h8l11 14a15.645 15.645 0 0 1 .828 8.556z" fill="#ffd782"/><path d="m43.5 21.449c2.953-3.513 8.923-10.309 10.815-9 3.222 2.228-2.907 9.486-6.476 14.522z" fill="#f4f4e6"/><circle cx="38" cy="31" fill="#143441" r="2"/><path d="m32 52a4 4 0 0 0 4-4v-1c-2.761 0-4-1.343-4-3 0 1.657-1.239 3-4 3v1a4 4 0 0 0 4 4z" fill="#f98c96"/><path d="m32 50a1 1 0 0 1 -1-1v-4h2v4a1 1 0 0 1 -1 1z" fill="#db527d"/><g fill="#143441"><path d="m36 39a4.406 4.406 0 0 1 -4 4 4.406 4.406 0 0 1 -4-4c0-1.657 1.791-2 4-2s4 .343 4 2z"/><path d="m40 44c0 .944-1.711 2-4 2-1.12 0-3-.26-3-2h-2c0 1.74-1.88 2-3 2-2.289 0-4-1.056-4-2h-2c0 2.243 2.636 4 6 4a5.2 5.2 0 0 0 4-1.449 5.2 5.2 0 0 0 4 1.449c3.364 0 6-1.757 6-4z"/></g></g></svg>