<svg height="512" viewBox="0 0 64 64" width="512" xmlns="http://www.w3.org/2000/svg"><g id="flat"><path d="m16 12s-9-10-12-7 0 10 5 16z" fill="#ad6327"/><path d="m26 12s9-10 12-7 0 10-5 16z" fill="#ad6327"/><path d="m14.826 15.8c-.878-1.034-6.041-6.8-7.826-6.8-1.522 0 3.164 7.363 5.015 10.409z" fill="#f0f0d9"/><path d="m27.174 15.8c.878-1.034 6.041-6.8 7.826-6.8 1.522 0-3.164 7.363-5.015 10.409z" fill="#f0f0d9"/><path d="m15 46v8h-1a2 2 0 0 0 -2 2 2 2 0 0 0 2 2h4a2 2 0 0 0 2-2v-8z" fill="#f0f0d9"/><path d="m11 31.071c-.035 1.3-.268 20 14 24.118l8 .811 3.448-22.195a32.083 32.083 0 0 1 -5.322-2.872z" fill="#e0dfc3"/><path d="m49 56c4.694-.4 11-1.977 11-7a18.393 18.393 0 0 0 -1-6.553 3.993 3.993 0 1 0 -5.651-5.063 13.6 13.6 0 0 0 -3.349-.384 37.711 37.711 0 0 1 -13.552-3.195c-.475.658-.961 1.383-1.448 2.2a45.208 45.208 0 0 1 -6 8c-3 4 0 11 0 11l1 1z" fill="#d9833b"/><path d="m21 12-12.321 12.221-.293 1.905a9.725 9.725 0 0 0 3.614 5.874c6 5 7 4 9 7 2-3 3-2 9-7a10.256 10.256 0 0 0 3.614-5.874l-.495-2.3z" fill="#f0f0d9"/><path d="m16 12-7 9a9.079 9.079 0 0 0 -.614 5.126c.675-1.177 1.422-2.126 5.614-2.126 6 0 7-6 7-6v-6z" fill="#d9833b"/><path d="m33.151 54.955a1 1 0 0 1 -1.312-.9 5.518 5.518 0 0 1 2.606-4.885c1.761-1.174 2.367-4.362 2.515-6.253a.991.991 0 0 1 .992-.917.993.993 0 0 1 .995 1.07c-.156 1.952-.795 6.029-3.394 7.762a3.469 3.469 0 0 0 -1.722 3.135.989.989 0 0 1 -.682.988z" fill="#ad6327"/><path d="m46.078 52.882a1 1 0 0 1 -1.584.092 5.2 5.2 0 0 1 -.612-.853 4.274 4.274 0 0 1 .286-4.676 16.186 16.186 0 0 1 3.08-3.275 7.029 7.029 0 0 0 1.627-1.691.938.938 0 0 1 .848-.479h.014a1 1 0 0 1 .876 1.472 8.77 8.77 0 0 1 -2.056 2.211 14.286 14.286 0 0 0 -2.725 2.872 2.352 2.352 0 0 0 .161 3.119.984.984 0 0 1 .085 1.208z" fill="#ad6327"/><path d="m26 12 7 9a9.079 9.079 0 0 1 .614 5.126c-.675-1.177-1.422-2.126-5.614-2.126-6 0-7-6-7-6v-6z" fill="#cc7636"/><rect fill="#ad6327" height="2.236" rx="1" transform="matrix(.447 -.894 .894 .447 -5.057 74.817)" width="2" x="57" y="40.382"/><rect fill="#ad6327" height="3.606" rx="1" transform="matrix(.832 -.555 .555 .832 -12.287 36.42)" width="2" x="53" y="36.697"/><path d="m18.293 44.707a39.859 39.859 0 0 1 -3.125-4.152l1.664-1.11a37.191 37.191 0 0 0 2.875 3.848z" fill="#f0f0d9"/><path d="m23.831 43.556-1.663-1.111a12.2 12.2 0 0 1 5.516-4.394l.632 1.9a10.3 10.3 0 0 0 -4.485 3.605z" fill="#f0f0d9"/><g fill="#ad6327"><path d="m27.706 54.4c-.683-2-1.888-6.573-.117-10.016a1 1 0 0 1 1.486-.323 1 1 0 0 1 .281 1.257c-1.4 2.747-.339 6.71.246 8.436a.994.994 0 0 1 -.556 1.232 1 1 0 0 1 -1.34-.586z"/><path d="m54 49h2v2h-2z"/><path d="m54 45h2v2h-2z"/></g><path d="m21 29c0 1.105-1.343 2-3 2v1a3 3 0 0 0 6 0v-1c-1.657 0-3-.895-3-2z" fill="#db527d"/><circle cx="16" cy="20" fill="#301a12" r="1"/><circle cx="26" cy="20" fill="#301a12" r="1"/><path d="m26.9 54h4.2a1.9 1.9 0 0 1 1.9 1.9v1.1a2 2 0 0 1 -2 2h-4a2 2 0 0 1 -2-2v-1.1a1.9 1.9 0 0 1 1.9-1.9z" fill="#f0f0d9"/><path d="m42.9 54h4.2a1.9 1.9 0 0 1 1.9 1.9v1.1a2 2 0 0 1 -2 2h-4a2 2 0 0 1 -2-2v-1.1a1.9 1.9 0 0 1 1.9-1.9z" fill="#f0f0d9"/><path d="m26 29c0 .408-.779 1-2 1s-2-.592-2-1v-1h-2v1c0 .408-.779 1-2 1s-2-.592-2-1h-2c0 1.682 1.757 3 4 3a4.624 4.624 0 0 0 3-1.014 4.624 4.624 0 0 0 3 1.014c2.243 0 4-1.318 4-3z" fill="#143441"/><path d="m24 26a3.427 3.427 0 0 1 -3 3 3.427 3.427 0 0 1 -3-3c0-1.105 1.343-2 3-2s3 .9 3 2z" fill="#301a12"/></g></svg>