<svg id="레이어_1" enable-background="new 0 0 256 256" height="512" viewBox="0 0 256 256" width="512" xmlns="http://www.w3.org/2000/svg"><path d="m204.2 225.4h-152.4c-6.3 0-11.5-5.1-11.5-11.5v-89.3l87.7-77.6 87.7 77.6v89.3c-.1 6.4-5.2 11.5-11.5 11.5z" fill="#efefef"/><path d="m128 125.1c-18.2 0-33 14.8-33 33v67.3h66v-67.3c0-18.2-14.8-33-33-33z" fill="#ccc"/><path d="m117.9 30.8-98.9 88.1c-2 1.7-3.1 4.2-3.1 6.9 0 7.9 9.4 12.1 15.3 6.9l86.8-76.8c5.7-5.1 14.3-5.1 20 0l86.7 76.7c5.9 5.3 15.3 1 15.3-6.9 0-2.6-1.1-5.1-3.1-6.9l-98.9-88c-5.7-5.1-14.3-5.1-20.1 0z" fill="#71b2ff"/><path d="m62.4 228.3h-44.3c-1.2 0-2.1-1.1-1.8-2.2l5.4-29c.3-1.8 2.8-2.1 3.6-.4l4.6 10.9c.6 1.5 2.7 1.5 3.4.1l5.4-11.1c.7-1.4 2.6-1.4 3.3-.1l6.9 12.5c.8 1.5 3 1.2 3.4-.4l2.2-7.9c.5-1.9 3.2-1.8 3.6.1l6.1 25.3c.3 1-.6 2.2-1.8 2.2z" fill="#8dd36c"/><path d="m235.8 229h-79.3c-2.7 0-4.8-2.6-4.1-5.2l5.8-23.9c.6-2.6 2.9-4.4 5.6-4.4h64.7c2.7 0 5 1.8 5.6 4.4l5.8 23.9c.6 2.6-1.4 5.2-4.1 5.2z" fill="#71b5ff"/><path d="m214 224.4h-35.8c-2.8 0-5-2.2-5-5v-14.5c0-2.8 2.2-5 5-5h35.8c2.8 0 5 2.2 5 5v14.5c0 2.7-2.2 5-5 5z" fill="#ededed"/><g fill="#565656"><path d="m200.1 214.1c-.3-.1-.5-.3-.6-.6-.3-1.6-1.7-2.8-3.4-2.8s-3.1 1.2-3.4 2.8c-.1.3-.3.6-.6.6-1.6.4-2.8 1.9-2.6 3.6.1 1.6 1.5 3 3.1 3.1.5 0 1 0 1.5-.2 1.3-.5 2.7-.5 4 0 .5.2 1 .2 1.5.2 1.6-.1 3-1.5 3.1-3.1.1-1.7-1-3.2-2.6-3.6z"/><ellipse cx="193" cy="206.8" rx="2.1" ry="3.5" transform="matrix(.989 -.146 .146 .989 -28.119 30.392)"/><ellipse cx="188.7" cy="211.2" rx="1.9" ry="2.8" transform="matrix(.89 -.457 .457 .89 -75.615 109.44)"/><ellipse cx="199.2" cy="206.8" rx="3.5" ry="2.1" transform="matrix(.146 -.989 .989 .146 -34.397 373.671)"/><ellipse cx="203.5" cy="211.2" rx="2.8" ry="1.9" transform="matrix(.457 -.89 .89 .457 -77.351 295.873)"/></g></svg>