<svg enable-background="new 0 0 50 50" height="50" viewbox="0 0 512 512" width="50" xmlns="http://www.w3.org/2000/svg"><g id="_x31_4_x2C__up_x2C__arrow_x2C__direction_x2C__upload_x2C__orientation_x2C__up_arrow"><g><g><path d="m256 16c-132.64 0-240 107.341-240 240 0 132.641 107.34 240 240 240 132.642 0 240-107.341 240-240 0-132.64-107.341-240-240-240zm109.602 249.602c-7.81 7.81-20.474 7.81-28.284 0l-61.318-61.318v151.716c0 11.046-8.954 20-20 20s-20-8.954-20-20v-151.716l-61.318 61.318c-7.811 7.811-20.474 7.81-28.284 0-7.811-7.811-7.811-20.474 0-28.284l95.46-95.46c7.806-7.806 20.489-7.796 28.284 0l95.46 95.46c7.811 7.81 7.811 20.474 0 28.284z"/></g></g></g></svg>